<svg xmlns="http://www.w3.org/2000/svg" viewBox="0 0 176 90" fill="none"><g id="BT Logo AR Stacked" clip-path="url(#clip0_4_1643)"><path fill-rule="evenodd" clip-rule="evenodd" d="M78.802 8.02433L82.8627 0L86.9233 8.02433H78.802ZM94.6912 0L90.6375 8.02433H98.7519L94.6912 0ZM106.527 0L102.466 8.02433H110.58L106.527 0ZM111.53 82.0103C110.629 82.0103 109.895 82.7032 109.895 83.5625C109.895 84.4217 110.629 85.1147 111.53 85.1147C112.431 85.1147 113.165 84.4217 113.165 83.5625C113.165 82.7032 112.431 82.0103 111.53 82.0103ZM134.459 83.5625C134.459 82.7032 135.194 82.0103 136.095 82.0103C136.996 82.0103 137.73 82.7032 137.73 83.5625C137.73 84.4217 136.996 85.1147 136.095 85.1147C135.194 85.1147 134.459 84.4217 134.459 83.5625ZM86.5145 82.0103C85.6137 82.0103 84.8792 82.7032 84.8792 83.5625C84.8792 84.4217 85.6137 85.1147 86.5145 85.1147C87.4153 85.1147 88.1499 84.4217 88.1499 83.5625C88.1499 82.7032 87.4153 82.0103 86.5145 82.0103ZM89.4734 83.5625C89.4734 82.7032 90.2079 82.0103 91.1087 82.0103C92.0096 82.0103 92.7441 82.7032 92.7441 83.5625C92.7441 84.4217 92.0096 85.1147 91.1087 85.1147C90.2079 85.1147 89.4734 84.4217 89.4734 83.5625ZM24.3363 82.0103C23.4355 82.0103 22.7009 82.7032 22.7009 83.5625C22.7009 84.4217 23.4355 85.1147 24.3363 85.1147C25.2371 85.1147 25.9716 84.4217 25.9716 83.5625C25.9716 82.7032 25.2371 82.0103 24.3363 82.0103ZM27.2952 83.5625C27.2952 82.7032 28.0297 82.0103 28.9305 82.0103C29.8314 82.0103 30.5659 82.7032 30.5659 83.5625C30.5659 84.4217 29.8314 85.1147 28.9305 85.1147C28.0297 85.1147 27.2952 84.4217 27.2952 83.5625ZM175.953 48.4438H171.789V77.3744H175.953V48.4438ZM137.938 76.0994H155.816V48.4438H159.981V77.3744H68.8651L68.8513 77.5753C68.2623 85.2047 62.9543 87.9141 57.5146 89.9999L57.4246 89.8752C62.587 86.7569 64.7629 83.2298 64.7629 76.4805V56.1217H68.9136V76.0994H86.7917V56.1217H90.9147V76.0994H111.876V69.551C111.876 65.3864 111.641 62.483 110.296 60.1616C108.938 57.8264 106.277 56.4612 103.485 56.4612H100.886V56.1148H103.914C105.591 56.1148 107.254 56.4405 108.779 57.1057C113.678 59.24 116.034 62.4067 116.034 70.2162V76.0994H133.857V56.1217H137.938V76.0994ZM48.9498 56.1221H41.2581C36.4282 56.1221 32.4715 59.8501 32.0904 64.583L32.0557 64.5552V76.169H9.94379C5.61287 76.169 2.52926 75.095 0.0623653 73.2656L0 73.3349C2.12735 75.8295 5.15553 77.4441 10.2626 77.4441L35.9016 77.3817V67.9715V64.8601C35.9016 60.8272 38.119 57.5565 43.2053 57.5565L48.9498 57.5426V77.3817H50.5852V56.129H48.9498V56.1221ZM113.671 32.9565V41.6876H123.13V37.627C123.13 35.0492 121.716 32.9565 118.473 32.9565H113.671ZM79.6473 32.9011V41.6876H96.7978V37.5715C96.7978 35.0007 95.3841 32.9149 92.1412 32.9149L79.6473 32.9011ZM112.729 32.0557H119.714H119.727C122.97 32.0557 125.597 34.6819 125.597 37.9249V42.5053L65.7052 42.5261L65.6914 43.1775C65.6914 47.3698 63.5016 49.8783 58.949 49.8783C54.3963 49.8783 52.4561 47.5292 52.4561 43.2884H52.6432C52.6432 47.1481 54.6804 49.0398 57.4869 49.0398C60.2933 49.0398 63.0997 47.1966 63.0997 43.2884V20.9131H65.7537V41.6876H77.1527V20.9131H79.6542V32.0002H93.3885C96.6315 32.0002 99.2577 34.6265 99.2577 37.8695V41.6669L112.729 41.6946V32.0557Z" fill="#4A374B"/></g><defs><clipPath id="clip0_4_1643"><rect width="175.953" height="90" fill="white"/></clipPath></defs></svg>