<svg xmlns="http://www.w3.org/2000/svg" data-name="Layer 2" id="Layer_2" viewBox="0 0 145.88 58.17">
  <defs>
    <style>
      .cls-1 {
        fill: #c79667;
      }
    </style>
  </defs>
  <g data-name="Layer 1" id="Layer_1-2">
    <g>
      <polygon class="cls-1" points="138.62 4.34 140.82 30.7 141.27 30.7 144.03 26.53 145.67 .23 138.62 4.34"/>
      <polygon class="cls-1" points="8.04 4.12 11.41 7.26 15.25 3.65 11.41 0 8.04 3.17 4.79 0 .78 3.65 4.79 7.26 8.04 4.12"/>
      <g>
        <path class="cls-1" d="M7.4,23.87c-3.87,0-6.4-.23-6.4-2.33,0-3.32,5.65-5.42,12.48-5.98v8.31h-6.07ZM69.01,23.87c-2.69,0-5.33-.76-7.55-2.28-1.17-.8-2.1-1.73-2.1-2.68,0-2.1,3.55-3.87,7.29-3.87,2.33,0,5.29.79,7.62,2.53h.1c-.43-5.65-3.55-8.5-7.29-8.5-4.76,0-8.6,4.53-8.6,10.14,0,1.87.66,3.74,1.12,4.63H14.37v-14.78l-.89.19C5.54,10.89.35,15.01.02,21.08c-.27,5.9,2.58,8.78,7.76,9.5l5.71-6.01v6.04s1.54-.03,5.74-.03h16.27l5.7-6.17v6.21h30.75l6.26-6.73h-9.2Z"/>
        <path class="cls-1" d="M124.37,4.34l4.76,19.54h-23.39c-3.47,0-6.87-.95-9.84-2.76,0,7.19,3.09,9.49,6.63,9.49h5.15l5.69-6.17v6.17h18.45l-.39-30.37-7.06,4.1Z"/>
        <path class="cls-1" d="M111.1,9.06l-7.06,4.11c3.55,3.32,6.83,6.93,9.26,10.7.43-5.19-.43-10.51-2.2-14.81"/>
      </g>
      <polygon class="cls-1" points="41.19 9.06 31.48 15.66 41.19 20.94 41.19 9.06"/>
      <path class="cls-1" d="M80.67,16.47c3.54,2.51,5.72,4.55,8.71,7.96-1.54,4.43-8.6,7.72-13.92,9.39l5.42,5.75c6.17-3.78,9.39-9.52,9.39-15.6,0-3.55-.89-8.08-2.53-11.59l-7.07,4.09Z"/>
      <polygon class="cls-1" points="45.54 35.81 41.69 32.16 38.33 35.33 35.07 32.16 31.06 35.81 35.07 39.42 38.33 36.28 41.69 39.42 45.54 35.81"/>
      <g>
        <path class="cls-1" d="M88.45,45.38l-.99.72-.7-.97.99-.72.7.97ZM83.19,53.18h7.13c-.03-2.65-.54-4.24-2.48-4.24-1.72,0-3.33,1.21-4.65,4.24M90.47,54.35h-7.6c-.59,1.37-1.79,2.81-4.07,2.81-2.54,0-3.87-1.88-3.87-4.2,0-.47.03-.85.17-1.31l.67-.28c0,3.35,1.19,4.54,3.28,4.54,1.98,0,2.91-1.19,3.18-2.04-.17-1.64-.7-3.35-1.07-3.98l.95-.39c.32.77.57,1.88.69,3.03,1.54-3.65,3.7-4.81,5.41-4.81,2.26,0,2.78,2.08,2.78,4.47,0,1.09-.32,1.69-.52,2.16"/>
        <path class="cls-1" d="M94.74,48.14c.95,1.14,1.71,3.52,1.71,5.04,0,1.61-1.37,3.82-2.61,4.99-.39-.17-.79-.4-1.09-.7.87-.57,2.21-2.08,3-3.93-.25-1.89-1.04-3.62-1.99-4.7l.99-.69Z"/>
        <path class="cls-1" d="M100.45,53.18h4.64c-.15-1.52-.75-2.91-1.56-4.15-1.02,1.79-2.23,3.28-3.08,4.15M105.89,53.18l-.44,1.17h-7.45l.42-1.17h.94c1.04-1.06,2.54-2.85,3.63-4.92-1.59-2.11-3.67-3.65-4.65-4.42l.65-1.04c.92.57,2.88,2.29,4.49,4.45.52-1.22.87-2.51.87-3.78,0-.22-.02-.45-.05-.65l1.17-.23v.1c0,1.84-.6,3.72-1.42,5.39,1.06,1.61,1.84,3.4,1.84,5.11M101.12,39.74l-.08.84-3.68.77.05-.77,1.07-.23c-.37-.28-.62-.75-.62-1.27,0-.8.6-1.44,1.54-1.44.3,0,.55.07.75.13l.1.89c-.25-.1-.52-.18-.84-.18-.59,0-.95.3-1.1.7.25.39.75.85,1.57.85l1.24-.28Z"/>
      </g>
      <polygon class="cls-1" points="112.09 53.18 112.51 53.21 112.51 54.32 112.09 54.35 109.41 54.35 109.21 42.82 110.42 42.58 110.43 53.18 112.09 53.18"/>
      <g>
        <path class="cls-1" d="M120.51,53.18c.03-1.44-.57-2.93-2.6-4.27.42.47.65,1.14.65,1.99,0,.97-.32,1.66-1,2.28h2.95ZM115.46,53.2c.1,0,.2,0,.28-.02l-.28.02ZM115.92,53.15c1.09-.18,1.93-.97,1.93-2.08,0-1.04-.75-1.79-1.94-1.79s-1.93.67-1.93,1.84c0,1.1.69,1.79,1.94,2.03M115.82,46.67c4.07,1.69,5.51,4.05,5.51,6.28,0,.5-.1,1.1-.23,1.41h-9.01l-.42-.03v-1.11l.42-.03h1.91c-.42-.49-.74-1.16-.74-2.16,0-1.77.87-2.88,2.71-2.88.27,0,.52.03.75.08-.4-.2-.85-.4-1.34-.6l.44-.95Z"/>
        <path class="cls-1" d="M132.17,47.35l-.99.72-.7-.97.99-.72.7.97ZM137.94,53.18l.42.03v1.11l-.42.03h-2.09c-.49,1.77-2.13,2.81-4.07,2.81-2.54,0-3.87-1.88-3.87-4.2,0-.47.03-.85.17-1.31l.67-.28c0,3.35,1.19,4.54,3.28,4.54,1.98,0,2.91-1.19,3.18-2.04-.17-1.64-.7-3.35-1.07-3.98l1.02-.39c.35.87.69,2.04.84,3.68h1.94Z"/>
        <path class="cls-1" d="M145.13,53.3c0-2.04-.45-4.15-1.91-4.15-1.19,0-2.23,1.49-2.76,3.1.99.72,2.33,1.02,4.67,1.05M145.88,51.77c0,2.24-.64,2.75-2.39,2.75-1.21,0-2.48-.77-3.28-1.54-.5.92-.92,1.37-2.26,1.37l-.42-.03v-1.11l.42-.03c.95,0,1.44-.45,1.83-1.47.79-2.08,1.98-3.7,3.7-3.7,1.57,0,2.41,2.09,2.41,3.77"/>
      </g>
    </g>
  </g>
</svg>